<svg xmlns="http://www.w3.org/2000/svg" width="43.19" height="43.19" viewBox="0 0 43.19 43.19"><path d="M22.157.563A21.595,21.595,0,1,1,.563,22.157,21.591,21.591,0,0,1,22.157.563Zm-2.517,12.5,6.574,6.3h-15.9a2.085,2.085,0,0,0-2.09,2.09v1.393a2.085,2.085,0,0,0,2.09,2.09h15.9l-6.574,6.3a2.092,2.092,0,0,0-.035,2.987l.958.949a2.081,2.081,0,0,0,2.952,0L35.071,23.638a2.081,2.081,0,0,0,0-2.952L23.516,9.122a2.081,2.081,0,0,0-2.952,0l-.958.949a2.1,2.1,0,0,0,.035,3Z" transform="translate(-0.563 -0.563)" fill="#fff"/></svg>