<svg xmlns="http://www.w3.org/2000/svg" width="26.456" height="41.573" viewBox="0 0 26.456 41.573"><g transform="translate(-110 -20)"><path d="M110,40.787,123.228,20l13.228,20.787-13.228,7.559Zm0,0" fill="#666"/><path d="M250,20l13.228,20.787L250,48.345Zm0,0" transform="translate(-126.772)" fill="#333"/><path d="M110,270l13.228,7.559L136.456,270l-13.228,17.952Zm0,0" transform="translate(0 -226.379)" fill="#666"/><path d="M123.228,196.062l13.228-7.559-13.228,17.952ZM110,185.669,123.228,180l13.228,5.669-13.228,7.559Zm0,0" transform="translate(0 -144.882)" fill="#333"/><path d="M250,180l13.228,5.669L250,193.228Zm0,0" transform="translate(-126.772 -144.882)"/></g></svg>