<svg xmlns="http://www.w3.org/2000/svg" width="34.983" height="31.096" viewBox="0 0 34.983 31.096"><path d="M30.654,19.435H12.85l.4,1.943h16.3a1.458,1.458,0,0,1,1.421,1.781l-.335,1.474a3.4,3.4,0,1,1-3.863.632H14.04a3.4,3.4,0,1,1-4.072-.52L5.7,3.887H1.458A1.458,1.458,0,0,1,0,2.429V1.458A1.458,1.458,0,0,1,1.458,0H7.685A1.458,1.458,0,0,1,9.113,1.165l.557,2.721H33.525a1.458,1.458,0,0,1,1.421,1.781L32.075,18.3A1.458,1.458,0,0,1,30.654,19.435ZM24.78,10.2H21.864V7.774a.972.972,0,0,0-.972-.972h-.972a.972.972,0,0,0-.972.972V10.2H16.034a.972.972,0,0,0-.972.972v.972a.972.972,0,0,0,.972.972h2.915v2.429a.972.972,0,0,0,.972.972h.972a.972.972,0,0,0,.972-.972V13.119H24.78a.972.972,0,0,0,.972-.972v-.972A.972.972,0,0,0,24.78,10.2Z" fill="#fff"/></svg>