<svg xmlns="http://www.w3.org/2000/svg" width="14.008" height="17.241" viewBox="0 0 14.008 17.241"><path d="M5.576,7.316V18.091a1.081,1.081,0,0,0,1.078,1.078h9.7a1.081,1.081,0,0,0,1.078-1.078V7.316H5.576Zm3.233,9.7H7.731V9.471H8.809Zm2.155,0H9.886V9.471h1.078Zm2.155,0H12.042V9.471h1.078Zm2.155,0H14.2V9.471h1.078ZM17.7,4.083H14.2V2.736a.811.811,0,0,0-.808-.808H9.617a.811.811,0,0,0-.808.808V4.083h-3.5a.811.811,0,0,0-.808.808V6.238H18.507V4.891a.811.811,0,0,0-.808-.808Zm-4.58,0H9.886V3.019h3.233V4.083Z" transform="translate(-4.499 -1.928)" fill="#c4c6d0"/></svg>