<svg xmlns="http://www.w3.org/2000/svg" width="333" height="9" viewBox="0 0 333 9"><path d="M10,0,20,9H0Z" transform="translate(294)" fill="#fff"/><path d="M9.5,0,19,9H0Z" transform="translate(314)" fill="#fff"/><path d="M9.5,0,19,9H0Z" transform="translate(275)" fill="#fff"/><path d="M10.5,0,21,9H0Z" transform="translate(235)" fill="#fff"/><path d="M9.5,0,19,9H0Z" transform="translate(256)" fill="#fff"/><path d="M10,0,20,9H0Z" transform="translate(215)" fill="#fff"/><path d="M10,0,20,9H0Z" transform="translate(176)" fill="#fff"/><path d="M9.5,0,19,9H0Z" transform="translate(196)" fill="#fff"/><path d="M9.5,0,19,9H0Z" transform="translate(157)" fill="#fff"/><path d="M10,0,20,9H0Z" transform="translate(118)" fill="#fff"/><path d="M9.5,0,19,9H0Z" transform="translate(138)" fill="#fff"/><path d="M10,0,20,9H0Z" transform="translate(98)" fill="#fff"/><path d="M10,0,20,9H0Z" transform="translate(59)" fill="#fff"/><path d="M9.5,0,19,9H0Z" transform="translate(79)" fill="#fff"/><path d="M10,0,20,9H0Z" transform="translate(39)" fill="#fff"/><path d="M10,0,20,9H0Z" fill="#fff"/><path d="M9.5,0,19,9H0Z" transform="translate(20)" fill="#fff"/></svg>