<svg xmlns="http://www.w3.org/2000/svg" width="463" height="13" viewBox="0 0 463 13"><path d="M14,0,28,13H0Z" transform="translate(409)" fill="#fff"/><path d="M13,0,26,13H0Z" transform="translate(437)" fill="#fff"/><path d="M14,0,28,13H0Z" transform="translate(381)" fill="#fff"/><path d="M14,0,28,13H0Z" transform="translate(327)" fill="#fff"/><path d="M13,0,26,13H0Z" transform="translate(355)" fill="#fff"/><path d="M14,0,28,13H0Z" transform="translate(299)" fill="#fff"/><path d="M14,0,28,13H0Z" transform="translate(245)" fill="#fff"/><path d="M13,0,26,13H0Z" transform="translate(273)" fill="#fff"/><path d="M14,0,28,13H0Z" transform="translate(217)" fill="#fff"/><path d="M14,0,28,13H0Z" transform="translate(164)" fill="#fff"/><path d="M13,0,26,13H0Z" transform="translate(192)" fill="#fff"/><path d="M14,0,28,13H0Z" transform="translate(136)" fill="#fff"/><path d="M14,0,28,13H0Z" transform="translate(82)" fill="#fff"/><path d="M13,0,26,13H0Z" transform="translate(110)" fill="#fff"/><path d="M14,0,28,13H0Z" transform="translate(54)" fill="#fff"/><path d="M14,0,28,13H0Z" fill="#fff"/><path d="M13,0,26,13H0Z" transform="translate(28)" fill="#fff"/></svg>